# xmcd
#
# Track frame offsets:
#  150
#  12389
#  24676
#  34938
#  48514
#  63621
#  78672
#  91453
#  102700
#  114124
#  127720
#  138127
#  149883
#  160825
#  171447
#  183437
#
# Disc length: 2574 seconds
#
# Revision: 0
# Processed by: cddbd v1.5.2PL0 Copyright (c) Steve Scherf et al.
# Submitted via: AltoMP3_Maker 3.0
#
DISCID=e30a0c10
DTITLE=Various Artist - Country Classics Vol 5
DYEAR=1900
DGENRE=
TTITLE0=I Love You Because
TTITLE1=Alabama
TTITLE2=White Lightning
TTITLE3=Merle's Boogie Woogie
TTITLE4=Green Green Grass Of Home
TTITLE5=Conditions (Just Dropped In)
TTITLE6=Dallas
TTITLE7=Got A Letter From My Kid Today
TTITLE8=Have I Told You Lately That I Love You
TTITLE9=Why Don't You Haul Off And Love me
TTITLE10=Can You Forgive Me
TTITLE11=Crying because I Love You
TTITLE12=That Memphis Train
TTITLE13=Tell Me It Was Worth It In The End
TTITLE14=Two Sides Of Every Story
TTITLE15=Burning Desire
EXTD=
EXTT0=
EXTT1=
EXTT2=
EXTT3=
EXTT4=
EXTT5=
EXTT6=
EXTT7=
EXTT8=
EXTT9=
EXTT10=
EXTT11=
EXTT12=
EXTT13=
EXTT14=
EXTT15=
PLAYORDER=
